REM MD5 f701b2cf920dfa90e786153981481e92
FILE "Tomb Raider II - Starring Lara Croft (Italy).bin" BINARY
  TRACK 01 MODE2/2352
    INDEX 01 00:00:00
  TRACK 02 AUDIO
    INDEX 00 23:08:41
    INDEX 01 23:10:41
  TRACK 03 AUDIO
    INDEX 00 24:35:74
    INDEX 01 24:37:74
  TRACK 04 AUDIO
    INDEX 00 26:32:24
    INDEX 01 26:34:24
  TRACK 05 AUDIO
    INDEX 00 28:50:09
    INDEX 01 28:52:09
  TRACK 06 AUDIO
    INDEX 00 28:59:68
    INDEX 01 29:01:68
  TRACK 07 AUDIO
    INDEX 00 29:08:44
    INDEX 01 29:10:44
  TRACK 08 AUDIO
    INDEX 00 29:15:47
    INDEX 01 29:17:47
  TRACK 09 AUDIO
    INDEX 00 29:22:48
    INDEX 01 29:24:48
  TRACK 10 AUDIO
    INDEX 00 29:30:34
    INDEX 01 29:32:34
  TRACK 11 AUDIO
    INDEX 00 29:44:00
    INDEX 01 29:46:00
  TRACK 12 AUDIO
    INDEX 00 30:01:28
    INDEX 01 30:03:28
  TRACK 13 AUDIO
    INDEX 00 30:11:54
    INDEX 01 30:13:54
  TRACK 14 AUDIO
    INDEX 00 30:23:45
    INDEX 01 30:25:45
  TRACK 15 AUDIO
    INDEX 00 30:30:46
    INDEX 01 30:32:46
  TRACK 16 AUDIO
    INDEX 00 30:37:47
    INDEX 01 30:39:47
  TRACK 17 AUDIO
    INDEX 00 30:44:49
    INDEX 01 30:46:49
  TRACK 18 AUDIO
    INDEX 00 30:55:37
    INDEX 01 30:57:37
  TRACK 19 AUDIO
    INDEX 00 31:02:38
    INDEX 01 31:04:38
  TRACK 20 AUDIO
    INDEX 00 31:09:40
    INDEX 01 31:11:40
  TRACK 21 AUDIO
    INDEX 00 31:16:43
    INDEX 01 31:18:43
  TRACK 22 AUDIO
    INDEX 00 31:23:44
    INDEX 01 31:25:44
  TRACK 23 AUDIO
    INDEX 00 31:30:46
    INDEX 01 31:32:46
  TRACK 24 AUDIO
    INDEX 00 31:49:20
    INDEX 01 31:51:20
  TRACK 25 AUDIO
    INDEX 00 32:00:21
    INDEX 01 32:02:21
  TRACK 26 AUDIO
    INDEX 00 32:07:22
    INDEX 01 32:09:22
  TRACK 27 AUDIO
    INDEX 00 33:01:12
    INDEX 01 33:03:12
  TRACK 28 AUDIO
    INDEX 00 35:01:23
    INDEX 01 35:03:23
  TRACK 29 AUDIO
    INDEX 00 37:01:06
    INDEX 01 37:03:06
  TRACK 30 AUDIO
    INDEX 00 39:49:40
    INDEX 01 39:51:40
  TRACK 31 AUDIO
    INDEX 00 42:55:25
    INDEX 01 42:57:25
  TRACK 32 AUDIO
    INDEX 00 43:05:07
    INDEX 01 43:07:07
  TRACK 33 AUDIO
    INDEX 00 43:11:55
    INDEX 01 43:13:55
  TRACK 34 AUDIO
    INDEX 00 43:30:15
    INDEX 01 43:32:15
  TRACK 35 AUDIO
    INDEX 00 44:26:49
    INDEX 01 44:28:49
  TRACK 36 AUDIO
    INDEX 00 44:48:40
    INDEX 01 44:50:40
  TRACK 37 AUDIO
    INDEX 00 47:29:34
    INDEX 01 47:31:34
  TRACK 38 AUDIO
    INDEX 00 47:43:47
    INDEX 01 47:45:47
  TRACK 39 AUDIO
    INDEX 00 47:57:04
    INDEX 01 47:59:04
  TRACK 40 AUDIO
    INDEX 00 48:13:67
    INDEX 01 48:15:67
  TRACK 41 AUDIO
    INDEX 00 48:33:55
    INDEX 01 48:35:55
  TRACK 42 AUDIO
    INDEX 00 49:34:61
    INDEX 01 49:36:61
  TRACK 43 AUDIO
    INDEX 00 50:10:16
    INDEX 01 50:12:16
  TRACK 44 AUDIO
    INDEX 00 50:16:45
    INDEX 01 50:18:45
  TRACK 45 AUDIO
    INDEX 00 50:32:44
    INDEX 01 50:34:44
  TRACK 46 AUDIO
    INDEX 00 50:44:42
    INDEX 01 50:46:42
  TRACK 47 AUDIO
    INDEX 00 50:58:69
    INDEX 01 51:00:69
  TRACK 48 AUDIO
    INDEX 00 51:09:27
    INDEX 01 51:11:27
  TRACK 49 AUDIO
    INDEX 00 53:54:35
    INDEX 01 53:56:35
  TRACK 50 AUDIO
    INDEX 00 55:07:60
    INDEX 01 55:09:60
  TRACK 51 AUDIO
    INDEX 00 55:17:32
    INDEX 01 55:19:32
  TRACK 52 AUDIO
    INDEX 00 56:01:40
    INDEX 01 56:03:40
  TRACK 53 AUDIO
    INDEX 00 56:13:25
    INDEX 01 56:15:25
  TRACK 54 AUDIO
    INDEX 00 57:04:31
    INDEX 01 57:06:31
  TRACK 55 AUDIO
    INDEX 00 60:36:00
    INDEX 01 60:38:00
  TRACK 56 AUDIO
    INDEX 00 64:07:57
    INDEX 01 64:09:57
  TRACK 57 AUDIO
    INDEX 00 65:55:35
    INDEX 01 65:57:35
  TRACK 58 AUDIO
    INDEX 00 66:21:05
    INDEX 01 66:23:05
  TRACK 59 AUDIO
    INDEX 00 66:44:64
    INDEX 01 66:46:64
  TRACK 60 AUDIO
    INDEX 00 67:04:43
    INDEX 01 67:06:43
  TRACK 61 AUDIO
    INDEX 00 69:53:15
    INDEX 01 69:55:15
REM LEADOUT 70:12:69
